<?xml version="1.0" encoding="UTF-8"?>
<svg xmlns="http://www.w3.org/2000/svg" width="1024" height="1024" viewBox="0 0 1024 1024">
  <rect width="100%" height="100%" fill="#ffffff"/>
  <path d="M 596 549 L 523 655 L 522 662 L 686 909 L 691 910 L 745 824 L 764 785 L 603 553 Z M 369 177 L 347 218 L 335 256 L 329 294 L 331 343 L 341 380 L 352 403 L 424 515 L 429 516 L 497 414 L 498 406 L 400 261 L 381 216 L 374 179 Z M 654 176 L 649 178 L 643 210 L 631 243 L 605 289 L 259 785 L 287 840 L 332 910 L 336 910 L 643 448 L 680 385 L 692 341 L 694 290 L 682 233 L 671 206 Z M 394 136 L 390 158 L 390 184 L 403 228 L 407 228 L 425 212 L 448 199 L 487 188 L 521 187 L 559 194 L 588 207 L 615 228 L 620 228 L 628 207 L 633 181 L 628 134 L 599 109 L 568 96 L 527 88 L 497 88 L 469 92 L 425 108 L 406 122 Z " fill="#0b5f66" fill-rule="evenodd"/>
</svg>
